<svg role="presentation" version="1.1" xmlns="http://www.w3.org/2000/svg" width="60" height="60" viewBox="0 0 32 32"> <path d="M3.648 14.715c-0.375 0-0.745-0.064-1.097-0.191-1.677-0.605-2.547-2.457-1.943-4.136 0.184-0.511 0.392-1.001 0.625-1.485 0.741-1.547 2.748-2.263 4.308-1.516 0.779 0.373 1.365 1.028 1.652 1.84 0.287 0.816 0.24 1.693-0.135 2.469-0.137 0.289-0.261 0.587-0.372 0.889-0.459 1.271-1.68 2.129-3.039 2.129zM4.148 8.359c-0.744 0-1.429 0.431-1.751 1.101-0.212 0.447-0.404 0.897-0.573 1.371-0.363 1.003 0.16 2.12 1.167 2.481 0.98 0.353 2.128-0.189 2.48-1.167 0.125-0.344 0.267-0.676 0.423-1.005 0.224-0.465 0.252-0.995 0.083-1.481-0.173-0.487-0.525-0.88-0.992-1.103-0.263-0.139-0.545-0.197-0.836-0.197zM3.665 23.553c-1.351 0-2.571-0.851-3.035-2.12-0.185-0.503-0.345-1.019-0.479-1.54-0.212-0.835-0.087-1.705 0.352-2.449 0.441-0.744 1.144-1.269 1.98-1.48 1.699-0.432 3.499 0.639 3.929 2.332 0.081 0.312 0.176 0.62 0.284 0.919 0.297 0.807 0.26 1.688-0.103 2.469-0.363 0.783-1.009 1.377-1.82 1.673-0.357 0.131-0.731 0.196-1.109 0.196zM3.288 17.151c-0.161 0-0.323 0.025-0.481 0.061-0.504 0.131-0.924 0.445-1.191 0.891-0.264 0.445-0.34 0.967-0.211 1.472 0.123 0.477 0.268 0.951 0.439 1.417 0.357 0.976 1.509 1.512 2.488 1.155 0.485-0.179 0.873-0.535 1.091-1.004 0.217-0.467 0.241-0.995 0.061-1.479-0.124-0.344-0.232-0.688-0.323-1.043-0.217-0.869-0.988-1.471-1.873-1.471zM25.257 11.493c-0.101 0-0.204-0.028-0.299-0.077-0.461-0.244-0.863-0.599-1.157-1.028-0.201-0.296-0.139-0.707 0.149-0.911 0.291-0.208 0.681-0.149 0.889 0.136 0.012 0.016 0.037 0.056 0.045 0.069 0.16 0.235 0.396 0.443 0.676 0.591 0.315 0.165 0.436 0.559 0.269 0.871-0.115 0.225-0.339 0.349-0.573 0.349zM27.668 11.491c-0.233 0-0.456-0.127-0.571-0.347-0.167-0.313-0.045-0.705 0.268-0.872 0.065-0.029 0.125-0.071 0.187-0.112 0.207-0.139 0.375-0.311 0.512-0.509 0.203-0.297 0.608-0.369 0.899-0.167 0.295 0.201 0.365 0.603 0.167 0.897-0.227 0.325-0.507 0.607-0.835 0.835-0.099 0.072-0.209 0.136-0.324 0.196-0.099 0.057-0.203 0.079-0.303 0.079zM23.111 8.489c-0.323 0-0.601-0.243-0.64-0.569-0.016-0.129-0.023-0.252-0.023-0.381 0-0.399 0.071-0.785 0.211-1.159 0.128-0.336 0.5-0.507 0.836-0.373 0.333 0.129 0.5 0.503 0.373 0.836-0.085 0.221-0.128 0.457-0.128 0.696 0 0.079 0.005 0.153 0.015 0.232 0.041 0.355-0.212 0.673-0.567 0.72-0.027-0.003-0.051-0.001-0.077-0.001zM28.873 8.275c-0.259 0-0.504-0.156-0.603-0.411-0.055-0.139-0.129-0.275-0.215-0.405-0.116-0.169-0.24-0.339-0.363-0.507-0.212-0.289-0.153-0.691 0.135-0.905 0.287-0.212 0.689-0.153 0.904 0.135 0.135 0.18 0.265 0.357 0.392 0.54 0.143 0.211 0.261 0.436 0.352 0.672 0.133 0.332-0.033 0.708-0.364 0.836-0.081 0.029-0.159 0.045-0.239 0.045zM26.312 5.675c-0.053 0-0.107-0.008-0.159-0.023-0.157-0.041-0.328-0.084-0.472-0.059-0.155 0-0.308 0.020-0.461 0.053-0.347 0.083-0.693-0.136-0.776-0.481s0.135-0.695 0.481-0.779c0.252-0.061 0.519-0.071 0.769-0.085 0.259 0 0.521 0.029 0.781 0.097 0.345 0.085 0.553 0.44 0.465 0.783-0.077 0.299-0.339 0.493-0.629 0.493zM9.356 30.313c-0.564 0-1.12-0.148-1.613-0.431-0.465-0.268-0.916-0.561-1.351-0.871-0.701-0.507-1.164-1.251-1.305-2.103-0.141-0.851 0.059-1.707 0.563-2.407 1.001-1.393 3.109-1.747 4.511-0.743 0.26 0.191 0.531 0.361 0.811 0.524 1.541 0.891 2.073 2.872 1.187 4.415-0.576 0.996-1.648 1.615-2.801 1.615zM8.279 24.448c-0.624 0-1.213 0.3-1.579 0.807-0.303 0.421-0.421 0.933-0.337 1.444 0.084 0.512 0.361 0.96 0.783 1.261 0.4 0.288 0.815 0.556 1.243 0.801 0.908 0.528 2.137 0.183 2.651-0.709 0.532-0.923 0.213-2.116-0.713-2.648-0.313-0.183-0.623-0.38-0.917-0.592-0.332-0.237-0.723-0.364-1.129-0.364zM19.269 6.655c-0.013 0-0.152-0.005-0.164-0.005-0.359-0.025-0.629-0.329-0.607-0.685 0.021-0.355 0.323-0.659 0.683-0.605l0.088 0.003c0.28 0 0.563-0.063 0.817-0.185 0.325-0.155 0.708-0.011 0.859 0.312 0.151 0.324 0.011 0.708-0.312 0.86-0.427 0.201-0.897 0.307-1.364 0.307zM16.727 6.031c-0.105 0-0.216-0.027-0.317-0.083-0.453-0.257-0.84-0.628-1.121-1.073-0.193-0.299-0.103-0.701 0.197-0.889s0.7-0.103 0.892 0.197c0.169 0.264 0.403 0.487 0.673 0.64 0.309 0.18 0.417 0.571 0.243 0.883-0.121 0.209-0.341 0.325-0.567 0.325zM21.819 4.493c-0.035 0-0.072-0.003-0.108-0.008-0.352-0.059-0.589-0.395-0.531-0.745 0.019-0.108 0.028-0.213 0.028-0.32 0-0.207-0.033-0.409-0.099-0.608-0.112-0.341 0.071-0.704 0.409-0.817 0.343-0.119 0.704 0.076 0.817 0.408 0.109 0.328 0.161 0.671 0.161 1.012 0 0.18-0.015 0.355-0.044 0.535-0.049 0.321-0.324 0.544-0.635 0.544zM15.633 2.775c-0.084 0-0.169-0.020-0.251-0.051-0.328-0.139-0.484-0.517-0.345-0.845 0.203-0.481 0.525-0.913 0.931-1.245 0.276-0.227 0.684-0.185 0.911 0.091 0.227 0.277 0.187 0.683-0.091 0.911-0.245 0.196-0.437 0.459-0.559 0.743-0.104 0.249-0.344 0.397-0.596 0.397zM19.985 1.585c-0.053 0-0.108-0.009-0.164-0.025-0.004-0.001-0.035-0.009-0.037-0.012-0.379-0.103-0.769-0.195-1.167-0.272-0.349-0.069-0.579-0.404-0.511-0.756 0.067-0.351 0.403-0.567 0.756-0.512 0.428 0.081 0.852 0.185 1.267 0.296 0.344 0.095 0.56 0.455 0.467 0.797-0.075 0.293-0.328 0.484-0.611 0.484zM28.041 20.32c-0.053 0-0.107-0.008-0.156-0.021-0.509-0.127-0.985-0.379-1.376-0.729-0.265-0.24-0.288-0.645-0.048-0.912s0.645-0.288 0.912-0.051c0.235 0.212 0.52 0.361 0.823 0.437 0.348 0.085 0.559 0.436 0.472 0.783-0.073 0.295-0.337 0.493-0.627 0.493zM30.384 19.743c-0.179 0-0.356-0.076-0.483-0.217-0.237-0.264-0.213-0.673 0.053-0.912 0.239-0.209 0.419-0.473 0.528-0.769 0.125-0.336 0.496-0.503 0.832-0.381 0.333 0.129 0.507 0.497 0.379 0.836-0.183 0.489-0.487 0.931-0.88 1.283-0.123 0.108-0.277 0.161-0.429 0.161zM26.105 17.471c-0.023 0-0.039-0.003-0.059-0.003-0.356-0.032-0.62-0.349-0.588-0.701 0.028-0.295 0.040-0.589 0.040-0.889 0-0.129 0.008-0.257 0.024-0.385 0.043-0.352 0.365-0.619 0.719-0.565 0.355 0.040 0.607 0.361 0.567 0.719-0.011 0.077-0.016 0.149-0.013 0.231 0 0.343-0.016 0.675-0.045 1.007-0.032 0.335-0.313 0.588-0.644 0.588zM31.304 16.227c-0.329 0-0.612-0.249-0.641-0.584-0.029-0.311-0.137-0.615-0.309-0.872-0.199-0.296-0.119-0.699 0.179-0.895 0.299-0.192 0.697-0.116 0.895 0.183 0.293 0.436 0.473 0.941 0.523 1.469 0.033 0.353-0.227 0.672-0.581 0.704-0.023-0.005-0.045-0.005-0.064-0.005zM27.525 14.219c-0.229 0-0.453-0.125-0.569-0.343-0.169-0.311-0.051-0.705 0.265-0.876 0.463-0.247 0.984-0.38 1.509-0.38 0.357 0 0.661 0.291 0.661 0.647 0 0.355-0.275 0.643-0.632 0.643v-0.645l-0.003 0.645c-0.345 0.003-0.645 0.081-0.925 0.228-0.099 0.056-0.203 0.081-0.307 0.081zM24.836 28.359c-0.881 0-1.701-0.351-2.315-0.977-0.601-0.619-0.928-1.429-0.917-2.291 0.011-0.867 0.356-1.675 0.973-2.279 0.231-0.221 0.449-0.459 0.653-0.704 1.107-1.317 3.237-1.504 4.556-0.401 0.663 0.556 1.067 1.331 1.141 2.192 0.076 0.859-0.189 1.696-0.745 2.359-0.343 0.411-0.709 0.807-1.093 1.181-0.605 0.593-1.405 0.92-2.253 0.92zM25.711 22.244c-0.576 0-1.116 0.252-1.484 0.692-0.232 0.281-0.481 0.548-0.743 0.804-0.372 0.361-0.58 0.845-0.585 1.365-0.007 0.517 0.188 1.007 0.551 1.375 0.72 0.743 2 0.76 2.741 0.032 0.353-0.347 0.689-0.704 1.005-1.084 0.333-0.403 0.492-0.9 0.448-1.42-0.044-0.511-0.289-0.981-0.685-1.317-0.349-0.285-0.793-0.447-1.248-0.447zM9.316 7.931c-1.147 0-2.219-0.616-2.796-1.604-0.433-0.747-0.549-1.616-0.329-2.449 0.221-0.835 0.753-1.535 1.499-1.967 0.46-0.271 0.94-0.513 1.431-0.737 1.583-0.721 3.565 0.028 4.28 1.603 0.739 1.62 0.020 3.537-1.603 4.28-0.296 0.136-0.583 0.285-0.859 0.447-0.493 0.277-1.056 0.428-1.623 0.428zM10.459 2.168c-0.277 0-0.547 0.061-0.803 0.179-0.452 0.205-0.891 0.432-1.315 0.677-0.449 0.264-0.769 0.679-0.901 1.183-0.132 0.503-0.061 1.023 0.199 1.473 0.517 0.889 1.751 1.223 2.651 0.699 0.315-0.184 0.639-0.351 0.972-0.504 0.973-0.445 1.404-1.595 0.963-2.567-0.313-0.692-1.008-1.14-1.765-1.14zM16.783 32c-1.681 0-3.097-1.315-3.221-2.991-0.131-1.777 1.207-3.328 2.983-3.464 0.324-0.025 0.644-0.063 0.96-0.119 1.787-0.313 3.436 0.891 3.743 2.623 0.148 0.849-0.043 1.704-0.537 2.412s-1.235 1.181-2.085 1.328c-0.523 0.088-1.055 0.157-1.595 0.197-0.093 0.011-0.171 0.013-0.247 0.013zM18.063 26.672c-0.111 0-0.225 0.009-0.339 0.028-0.356 0.061-0.716 0.105-1.084 0.135-1.065 0.081-1.868 1.012-1.791 2.077 0.075 1.005 0.923 1.796 1.932 1.796l0.156-0.005c0.487-0.035 0.976-0.099 1.463-0.185 0.509-0.088 0.955-0.373 1.251-0.797 0.299-0.424 0.409-0.937 0.323-1.447-0.167-0.931-0.968-1.601-1.911-1.601z"></path> </svg>