<svg role="presentation" version="1.1" xmlns="http://www.w3.org/2000/svg" width="32" height="32" viewBox="0 0 32 32"> <path d="M15.375 23.973c-0.16 0-0.319-0.057-0.445-0.172l-6.251-5.625c-0.273-0.248-0.296-0.668-0.049-0.94 0.248-0.276 0.668-0.296 0.941-0.049l5.805 5.221 5.804-5.221c0.273-0.248 0.695-0.227 0.941 0.049 0.247 0.272 0.224 0.693-0.048 0.94l-6.251 5.625c-0.128 0.116-0.288 0.172-0.448 0.172zM15.333 23.307c-0.368 0-0.667-0.3-0.667-0.667v-21.333c0-0.368 0.299-0.667 0.667-0.667s0.667 0.299 0.667 0.667v21.333c0 0.368-0.299 0.667-0.667 0.667zM31.333 30.64h-30.667c-0.368 0-0.667-0.3-0.667-0.667v-20c0-0.368 0.299-0.667 0.667-0.667h10c0.368 0 0.667 0.299 0.667 0.667s-0.299 0.667-0.667 0.667h-9.333v18.667h29.333v-18.667h-10.667c-0.367 0-0.667-0.299-0.667-0.667s0.3-0.667 0.667-0.667h11.333c0.367 0 0.667 0.299 0.667 0.667v20c0 0.368-0.3 0.667-0.667 0.667z"></path> </svg>