<svg role="presentation" version="1.1" xmlns="http://www.w3.org/2000/svg" width="60" height="60" viewBox="0 0 32 32"> <path d="M20.623 31.333h-17.333c-0.368 0-0.667-0.3-0.667-0.667v-29.333c0-0.367 0.299-0.667 0.667-0.667h17.333c0.367 0 0.667 0.3 0.667 0.667v12.667h-1.333v-12h-16v28h16v-2.667h1.333v3.333c0 0.367-0.3 0.667-0.667 0.667zM13.288 23.333h-7.333c-0.368 0-0.667-0.3-0.667-0.667v-18.667c0-0.367 0.299-0.667 0.667-0.667h12c0.367 0 0.667 0.3 0.667 0.667v11.333h-1.333v-10.667h-10.667v17.333h6.667v1.333zM11.893 28.497c-1.187 0-2.152-0.967-2.152-2.153s0.965-2.151 2.152-2.151c1.187 0 2.152 0.968 2.152 2.151 0 1.187-0.965 2.153-2.152 2.153zM11.893 25.527c-0.452 0-0.819 0.367-0.819 0.817 0 0.452 0.367 0.82 0.819 0.82s0.819-0.367 0.819-0.82c0-0.451-0.368-0.817-0.819-0.817zM23.148 28.303c-1.855 0-4.26-0.888-6.384-1.675-1.184-0.437-2.301-0.849-3.008-0.975-1.159-0.207-1.831-0.928-1.841-1.975-0.007-0.565 0.213-1.115 0.601-1.511 0.377-0.38 0.879-0.589 1.413-0.589l1.468 0.051-5.345-5.347c-0.829-0.828-0.856-2.099-0.063-2.892 0.775-0.775 2.081-0.747 2.876 0.048l2.779 2.779c0.097-0.2 0.229-0.387 0.392-0.549 0.547-0.545 1.383-0.713 2.093-0.452 0.096-0.273 0.252-0.529 0.473-0.751 0.553-0.555 1.407-0.719 2.123-0.44 0.093-0.271 0.251-0.524 0.469-0.74 0.771-0.772 2.093-0.74 2.892 0.063l3.753 3.752c2.423 2.421 1.463 5.885 0.615 7.373-0.028 0.052-0.065 0.1-0.107 0.139l-2.893 2.893c-0.528 0.528-1.304 0.797-2.307 0.797zM13.921 22.907c-0.216 0-0.367 0.104-0.455 0.195-0.14 0.14-0.22 0.345-0.217 0.556 0.001 0.195 0.005 0.548 0.744 0.684 0.823 0.145 1.941 0.56 3.236 1.037 1.917 0.707 4.305 1.589 5.92 1.589 0.637 0 1.095-0.139 1.365-0.408l2.823-2.824c0.276-0.527 1.707-3.555-0.437-5.7l-3.753-3.751c-0.253-0.251-0.587-0.48-1.007-0.064-0.277 0.277-0.257 0.688 0.049 0.992 0.26 0.26 0.26 0.685-0.003 0.943-0.257 0.257-0.68 0.257-0.943 0v0 0l-0.688-0.693c-0.252-0.251-0.588-0.481-1.008-0.063-0.309 0.308-0.208 0.732 0.049 0.992v0c0.26 0.259 0.26 0.684 0 0.943s-0.683 0.259-0.943 0v0l-0.667-0.668c-0.251-0.251-0.587-0.48-1.005-0.063-0.129 0.129-0.195 0.281-0.195 0.451 0 0.193 0.084 0.383 0.243 0.539v0c0.26 0.26 0.26 0.685 0 0.943-0.26 0.26-0.683 0.26-0.943 0v0l-4.164-4.163c-0.292-0.293-0.719-0.316-0.991-0.048-0.309 0.309-0.203 0.743 0.063 1.007l6.541 6.54c0.195 0.195 0.249 0.484 0.139 0.739-0.109 0.251-0.368 0.408-0.635 0.401l-3.12-0.105z"></path> </svg>