<?xml version="1.0" encoding="UTF-8"?>
<svg xmlns="http://www.w3.org/2000/svg" xmlns:xlink="http://www.w3.org/1999/xlink" width="40pt" height="40pt" viewBox="0 0 40 40" version="1.1">
<g id="surface1">
<path style=" stroke:none;fill-rule:nonzero;fill:rgb(9.411765%,46.666667%,94.901961%);fill-opacity:1;" d="M 40 20 C 40 8.953125 31.046875 0 20 0 C 8.953125 0 0 8.953125 0 20 C 0 29.984375 7.3125 38.257812 16.875 39.757812 L 16.875 25.78125 L 11.796875 25.78125 L 11.796875 20 L 16.875 20 L 16.875 15.59375 C 16.875 10.582031 19.859375 7.8125 24.429688 7.8125 C 26.617188 7.8125 28.90625 8.203125 28.90625 8.203125 L 28.90625 13.125 L 26.382812 13.125 C 23.898438 13.125 23.125 14.667969 23.125 16.25 L 23.125 20 L 28.671875 20 L 27.785156 25.78125 L 23.125 25.78125 L 23.125 39.757812 C 32.6875 38.257812 40 29.984375 40 20 Z M 40 20 "/>
<path style=" stroke:none;fill-rule:nonzero;fill:rgb(100%,100%,100%);fill-opacity:1;" d="M 27.785156 25.78125 L 28.671875 20 L 23.125 20 L 23.125 16.25 C 23.125 14.667969 23.898438 13.125 26.382812 13.125 L 28.90625 13.125 L 28.90625 8.203125 C 28.90625 8.203125 26.617188 7.8125 24.429688 7.8125 C 19.859375 7.8125 16.875 10.582031 16.875 15.59375 L 16.875 20 L 11.796875 20 L 11.796875 25.78125 L 16.875 25.78125 L 16.875 39.757812 C 18.945312 40.082031 21.054688 40.082031 23.125 39.757812 L 23.125 25.78125 Z M 27.785156 25.78125 "/>
</g>
</svg>
