<?xml version="1.0" encoding="UTF-8"?>
<svg xmlns="http://www.w3.org/2000/svg" xmlns:xlink="http://www.w3.org/1999/xlink" width="40pt" height="40pt" viewBox="0 0 40 40" version="1.1">
<g id="surface1">
<path style=" stroke:none;fill-rule:nonzero;fill:rgb(100%,0%,0%);fill-opacity:1;" d="M 20.003906 0.109375 C 31.035156 0.128906 39.941406 9.070312 39.886719 20.105469 C 39.835938 31.003906 31 39.894531 19.992188 39.890625 C 8.964844 39.882812 0.101562 30.96875 0.113281 19.929688 C 0.121094 9.011719 9.054688 0.109375 20.003906 0.109375 Z M 20.003906 0.109375 "/>
<path style=" stroke:none;fill-rule:nonzero;fill:rgb(100%,100%,100%);fill-opacity:1;" d="M 19.988281 29.371094 C 17.398438 29.273438 14.804688 29.195312 12.214844 29.078125 C 11.429688 29.046875 10.648438 28.957031 9.875 28.804688 C 8.375 28.492188 7.503906 27.515625 7.195312 26.027344 C 6.957031 24.871094 6.859375 23.699219 6.808594 22.523438 C 6.761719 21.414062 6.726562 20.300781 6.746094 19.191406 C 6.773438 17.445312 6.84375 15.695312 7.191406 13.972656 C 7.53125 12.269531 8.609375 11.285156 10.347656 11.058594 C 11.890625 10.859375 13.441406 10.78125 14.996094 10.742188 C 16.394531 10.703125 17.789062 10.671875 19.1875 10.660156 C 22.234375 10.628906 25.28125 10.6875 28.324219 10.917969 C 28.933594 10.964844 29.546875 11.023438 30.140625 11.15625 C 31.628906 11.488281 32.492188 12.453125 32.800781 13.929688 C 33.039062 15.085938 33.140625 16.257812 33.1875 17.433594 C 33.234375 18.542969 33.269531 19.65625 33.25 20.765625 C 33.222656 22.515625 33.152344 24.261719 32.804688 25.984375 C 32.464844 27.6875 31.386719 28.671875 29.648438 28.898438 C 28.105469 29.097656 26.554688 29.175781 25 29.21875 C 23.601562 29.257812 22.207031 29.277344 20.808594 29.300781 C 20.535156 29.304688 20.261719 29.300781 19.988281 29.300781 Z M 19.988281 29.371094 "/>
<path style=" stroke:none;fill-rule:nonzero;fill:rgb(100%,0%,0%);fill-opacity:1;" d="M 24.191406 19.976562 L 17.308594 23.882812 L 17.308594 16.070312 Z M 24.191406 19.976562 "/>
</g>
</svg>
